<svg xmlns="http://www.w3.org/2000/svg" viewBox="0 0 19.84 20.38"><path d="M15.3,18.74a.73.73,0,0,1-.35-.12.7.7,0,0,1-.24-.3.71.71,0,0,1-.05-.38.75.75,0,0,1,.16-.35,20.32,20.32,0,0,0,3.73-5.65.7.7,0,0,1,.39-.31.72.72,0,0,1,.5,0,.68.68,0,0,1,.34.37.72.72,0,0,1,0,.5,21.78,21.78,0,0,1-4,6,.6.6,0,0,1-.23.16.58.58,0,0,1-.29,0ZM8.81,20.38a.63.63,0,0,1-.41-.15.68.68,0,0,1-.24-.36.66.66,0,0,1,0-.44.7.7,0,0,1,.27-.34,17.77,17.77,0,0,0,6.17-5.71,18,18,0,0,0,2.89-7.94.59.59,0,0,1,.07-.26A.91.91,0,0,1,17.77,5,.7.7,0,0,1,18,4.84a.77.77,0,0,1,.27,0,.73.73,0,0,1,.25.08.74.74,0,0,1,.21.18.7.7,0,0,1,.13.24.63.63,0,0,1,0,.27,19.33,19.33,0,0,1-3.25,8.67,19,19,0,0,1-6.87,6.13Z" style="fill:#fff"/><path d="M5,19.06a.75.75,0,0,1-.4-.19.76.76,0,0,1-.2-.4A.75.75,0,0,1,4.48,18a.71.71,0,0,1,.32-.3,14.91,14.91,0,0,0,7.34-5.51,15.15,15.15,0,0,0,2.78-8.8l0-.91A.73.73,0,0,1,15.06,2a.68.68,0,0,1,.47-.24.71.71,0,0,1,.5.17.68.68,0,0,1,.24.48v1a16.59,16.59,0,0,1-3.13,9.65A16.37,16.37,0,0,1,5,19.06Zm1.83-7.33a.7.7,0,0,1-.27-.08.68.68,0,0,1-.21-.17,16.52,16.52,0,0,1-4.29-7.4.72.72,0,0,1,.13-.45.64.64,0,0,1,.39-.27.66.66,0,0,1,.46,0,.73.73,0,0,1,.34.33A15.18,15.18,0,0,0,7.32,10.5a.7.7,0,0,1,.19.36.79.79,0,0,1,0,.4.69.69,0,0,1-.25.31.64.64,0,0,1-.38.12v0ZM1.73,14.24a.59.59,0,0,1-.29-.07A.58.58,0,0,1,1.21,14q-.6-.72-1.14-1.5A.69.69,0,0,1,0,12a.74.74,0,0,1,.27-.4.72.72,0,0,1,.45-.13.78.78,0,0,1,.44.2l1.07,1.4a.7.7,0,0,1-.52,1.15Z" style="fill:#fff"/><path d="M2.56,16.89a.7.7,0,0,1-.51-.15.73.73,0,0,1-.25-.48A.67.67,0,0,1,2,15.75a.69.69,0,0,1,.47-.25,12.14,12.14,0,0,0,7.32-4.68A13.82,13.82,0,0,1,4.42,2a.7.7,0,0,1,0-.29.67.67,0,0,1,.1-.28.7.7,0,0,1,.2-.22A.64.64,0,0,1,5,1.12a.57.57,0,0,1,.29,0,.64.64,0,0,1,.26.13.71.71,0,0,1,.19.23.73.73,0,0,1,.07.29A12.39,12.39,0,0,0,7.58,6.47a12.22,12.22,0,0,0,3.51,3.58.61.61,0,0,1,.2.19.76.76,0,0,1,.11.26.62.62,0,0,1,0,.27.82.82,0,0,1-.1.26,13.88,13.88,0,0,1-3.79,3.81,13.62,13.62,0,0,1-4.95,2.05Z" style="fill:#fff"/><path d="M4.56,13.3a.7.7,0,0,1-.27-.08.68.68,0,0,1-.21-.17A19.11,19.11,0,0,1,.28,7.33a.66.66,0,0,1-.06-.27.65.65,0,0,1,.05-.27.57.57,0,0,1,.15-.23A.69.69,0,0,1,.64,6.4a.76.76,0,0,1,.27-.05.47.47,0,0,1,.26.05.59.59,0,0,1,.23.14.73.73,0,0,1,.16.23A17.71,17.71,0,0,0,5,12.11a.7.7,0,0,1-.48,1.19ZM12,8.86a.59.59,0,0,1-.38-.14,10.79,10.79,0,0,1-3.12-3.4A11,11,0,0,1,7.05.91.82.82,0,0,1,7,.6.79.79,0,0,1,7.13.31.73.73,0,0,1,7.35.1.77.77,0,0,1,7.64,0a.78.78,0,0,1,.3,0A.67.67,0,0,1,8.19.2a.73.73,0,0,1,.17.26.8.8,0,0,1,0,.31,9.49,9.49,0,0,0,3.24,6.28A12.33,12.33,0,0,0,12,1.11a.63.63,0,0,1-.07-.3A.67.67,0,0,1,12,.5a.76.76,0,0,1,.2-.24.6.6,0,0,1,.28-.13.81.81,0,0,1,.31,0,.72.72,0,0,1,.27.15.67.67,0,0,1,.19.25.78.78,0,0,1,.06.31,14.06,14.06,0,0,1-.69,7.57.71.71,0,0,1-.16.26.82.82,0,0,1-.25.16l-.21,0Z" style="fill:#fff"/></svg>